<?xml version="1.0" encoding="UTF-8"?>
<svg xmlns="http://www.w3.org/2000/svg" xmlns:xlink="http://www.w3.org/1999/xlink" viewBox="0 0 36 36" width="36px" height="36px">
<g id="surface8523529">
<path style=" stroke:none;fill-rule:nonzero;fill:rgb(0%,0%,0%);fill-opacity:1;" d="M 0 18 C 0 8.058594 8.058594 0 18 0 C 27.941406 0 36 8.058594 36 18 C 36 27.941406 27.941406 36 18 36 C 8.058594 36 0 27.941406 0 18 Z M 18 34.558594 C 27.144531 34.558594 34.558594 27.144531 34.558594 18 C 34.558594 8.855469 27.144531 1.441406 18 1.441406 C 8.855469 1.441406 1.441406 8.855469 1.441406 18 C 1.441406 27.144531 8.855469 34.558594 18 34.558594 Z M 18 34.558594 "/>
<path style=" stroke:none;fill-rule:nonzero;fill:rgb(0%,0%,0%);fill-opacity:1;" d="M 9.449219 6.300781 C 7.714844 6.300781 6.300781 7.714844 6.300781 9.449219 L 6.300781 26.550781 C 6.300781 28.285156 7.714844 29.699219 9.449219 29.699219 L 26.550781 29.699219 C 28.285156 29.699219 29.699219 28.285156 29.699219 26.550781 L 29.699219 9.449219 C 29.699219 7.714844 28.285156 6.300781 26.550781 6.300781 Z M 9.449219 7.199219 L 26.550781 7.199219 C 27.792969 7.199219 28.800781 8.207031 28.800781 9.449219 L 28.800781 26.550781 C 28.800781 27.792969 27.792969 28.800781 26.550781 28.800781 L 9.449219 28.800781 C 8.207031 28.800781 7.199219 27.792969 7.199219 26.550781 L 7.199219 9.449219 C 7.199219 8.207031 8.207031 7.199219 9.449219 7.199219 Z M 9 9 C 8.75 9 8.550781 9.203125 8.550781 9.449219 L 8.550781 10.351562 C 8.550781 10.597656 8.75 10.800781 9 10.800781 C 9.25 10.800781 9.449219 10.597656 9.449219 10.351562 L 9.449219 9.449219 C 9.449219 9.203125 9.25 9 9 9 Z M 11.25 9 C 11 9 10.800781 9.203125 10.800781 9.449219 L 10.800781 10.351562 C 10.800781 10.597656 11 10.800781 11.25 10.800781 C 11.5 10.800781 11.699219 10.597656 11.699219 10.351562 L 11.699219 9.449219 C 11.699219 9.203125 11.5 9 11.25 9 Z M 13.5 9 C 13.25 9 13.050781 9.203125 13.050781 9.449219 L 13.050781 10.351562 C 13.050781 10.597656 13.25 10.800781 13.5 10.800781 C 13.75 10.800781 13.949219 10.597656 13.949219 10.351562 L 13.949219 9.449219 C 13.949219 9.203125 13.75 9 13.5 9 Z M 15.75 9 C 15.5 9 15.300781 9.203125 15.300781 9.449219 L 15.300781 10.351562 C 15.300781 10.597656 15.5 10.800781 15.75 10.800781 C 16 10.800781 16.199219 10.597656 16.199219 10.351562 L 16.199219 9.449219 C 16.199219 9.203125 16 9 15.75 9 Z M 18 9 C 17.75 9 17.550781 9.203125 17.550781 9.449219 L 17.550781 10.351562 C 17.550781 10.597656 17.75 10.800781 18 10.800781 C 18.25 10.800781 18.449219 10.597656 18.449219 10.351562 L 18.449219 9.449219 C 18.449219 9.203125 18.25 9 18 9 Z M 20.25 9 C 20 9 19.800781 9.203125 19.800781 9.449219 L 19.800781 10.351562 C 19.800781 10.597656 20 10.800781 20.25 10.800781 C 20.5 10.800781 20.699219 10.597656 20.699219 10.351562 L 20.699219 9.449219 C 20.699219 9.203125 20.5 9 20.25 9 Z M 22.5 9 C 22.25 9 22.050781 9.203125 22.050781 9.449219 L 22.050781 10.351562 C 22.050781 10.597656 22.25 10.800781 22.5 10.800781 C 22.75 10.800781 22.949219 10.597656 22.949219 10.351562 L 22.949219 9.449219 C 22.949219 9.203125 22.75 9 22.5 9 Z M 24.75 9 C 24.5 9 24.300781 9.203125 24.300781 9.449219 L 24.300781 10.351562 C 24.300781 10.597656 24.5 10.800781 24.75 10.800781 C 25 10.800781 25.199219 10.597656 25.199219 10.351562 L 25.199219 9.449219 C 25.199219 9.203125 25 9 24.75 9 Z M 27 9 C 26.75 9 26.550781 9.203125 26.550781 9.449219 L 26.550781 10.351562 C 26.550781 10.597656 26.75 10.800781 27 10.800781 C 27.25 10.800781 27.449219 10.597656 27.449219 10.351562 L 27.449219 9.449219 C 27.449219 9.203125 27.25 9 27 9 Z M 12.375 11.699219 C 11.257812 11.699219 10.351562 12.609375 10.351562 13.726562 C 10.351562 14.839844 11.257812 15.75 12.375 15.75 C 13.492188 15.75 14.398438 14.839844 14.398438 13.726562 C 14.398438 12.609375 13.492188 11.699219 12.375 11.699219 Z M 12.375 12.453125 C 13.078125 12.453125 13.648438 13.023438 13.648438 13.726562 C 13.648438 14.425781 13.078125 14.996094 12.375 14.996094 C 11.671875 14.996094 11.101562 14.425781 11.101562 13.726562 C 11.101562 13.023438 11.671875 12.453125 12.375 12.453125 Z M 21.542969 15.945312 C 20.5 15.945312 19.675781 16.3125 19.09375 16.789062 L 19.09375 16.636719 C 19.09375 16.390625 18.894531 16.1875 18.644531 16.1875 L 15.75 16.1875 C 15.503906 16.1875 15.300781 16.390625 15.300781 16.636719 L 15.300781 26.550781 C 15.300781 26.796875 15.503906 27 15.75 27 L 18.765625 27 C 19.015625 27 19.214844 26.796875 19.214844 26.550781 L 19.214844 21.550781 C 19.214844 20.058594 19.585938 19.503906 20.578125 19.503906 C 21.535156 19.503906 21.695312 20.160156 21.695312 21.628906 L 21.695312 26.550781 C 21.695312 26.796875 21.898438 27 22.148438 27 L 25.164062 27 C 25.414062 27 25.613281 26.796875 25.613281 26.550781 L 25.613281 21.023438 C 25.617188 18.515625 25.132812 15.945312 21.542969 15.945312 Z M 10.800781 16.199219 C 10.550781 16.199219 10.351562 16.402344 10.351562 16.648438 L 10.351562 26.550781 C 10.351562 26.796875 10.550781 27 10.800781 27 L 13.949219 27 C 14.199219 27 14.398438 26.796875 14.398438 26.550781 L 14.398438 16.648438 C 14.398438 16.402344 14.199219 16.199219 13.949219 16.199219 Z M 21.542969 16.847656 C 24.1875 16.847656 24.714844 18.445312 24.714844 21.023438 L 24.714844 26.101562 L 22.597656 26.101562 L 22.597656 21.628906 C 22.597656 20.570312 22.597656 18.601562 20.578125 18.601562 C 18.316406 18.601562 18.316406 20.820312 18.316406 21.550781 L 18.316406 26.101562 L 16.199219 26.101562 L 16.199219 17.085938 L 18.195312 17.085938 L 18.195312 17.964844 C 18.195312 18.214844 18.4375 18.417969 18.6875 18.417969 C 18.855469 18.417969 19.007812 18.324219 19.085938 18.175781 C 19.40625 17.5625 20.246094 16.847656 21.542969 16.847656 Z M 11.25 17.101562 L 13.5 17.101562 L 13.5 26.101562 L 11.25 26.101562 Z M 11.25 17.101562 "/>
</g>
</svg>
